<?xml version="1.0" encoding="UTF-8" standalone="no"?>
<svg
   xmlns:dc="http://purl.org/dc/elements/1.1/"
   xmlns:cc="http://creativecommons.org/ns#"
   xmlns:rdf="http://www.w3.org/1999/02/22-rdf-syntax-ns#"
   xmlns:svg="http://www.w3.org/2000/svg"
   xmlns="http://www.w3.org/2000/svg"
   xmlns:sodipodi="http://sodipodi.sourceforge.net/DTD/sodipodi-0.dtd"
   xmlns:inkscape="http://www.inkscape.org/namespaces/inkscape"
   height="24px"
   viewBox="0 0 24 24"
   width="24px"
   fill="#000000"
   version="1.1"
   id="svg6"
   sodipodi:docname="icon_transparent.svg"
   inkscape:version="0.92.5 (2060ec1f9f, 2020-04-08)"
   inkscape:export-filename="/home/adriano/repos/desktop_charts/docs_web/web/icons/Icon-maskable-512.png"
   inkscape:export-xdpi="2048"
   inkscape:export-ydpi="2048">
  <metadata
     id="metadata12">
    <rdf:RDF>
      <cc:Work
         rdf:about="">
        <dc:format>image/svg+xml</dc:format>
        <dc:type
           rdf:resource="http://purl.org/dc/dcmitype/StillImage" />
      </cc:Work>
    </rdf:RDF>
  </metadata>
  <defs
     id="defs10" />
  <sodipodi:namedview
     pagecolor="#ffffff"
     bordercolor="#666666"
     borderopacity="1"
     objecttolerance="10"
     gridtolerance="10"
     guidetolerance="10"
     inkscape:pageopacity="0"
     inkscape:pageshadow="2"
     inkscape:window-width="960"
     inkscape:window-height="1020"
     id="namedview8"
     showgrid="false"
     inkscape:zoom="16"
     inkscape:cx="9.8886342"
     inkscape:cy="15.855263"
     inkscape:window-x="960"
     inkscape:window-y="28"
     inkscape:window-maximized="0"
     inkscape:current-layer="svg6" />
  <path
     d="M0 0h24v24H0V0z"
     fill="none"
     id="path2" />
  <path
     d="m 12,18.975 c -3.87,0 -7,-3.13 -7,-7 0,-3.53 2.61,-6.43 6,-6.92 v -3.03 c -5.06,0.5 -9,4.76 -9,9.95 0,5.52 4.47,10 9.99,10 3.31,0 6.24,-1.61 8.06,-4.09 l -2.6,-1.53 c -1.28,1.6 -3.24,2.62 -5.45,2.62 z"
     id="path4"
     inkscape:connector-curvature="0"
     sodipodi:nodetypes="ssccssccs"
     style="fill:#0d80f2;fill-opacity:1" />
  <path
     d="m 13,2.0250002 v 3.0299999 c 3.39,0.49 6,3.3900001 6,6.9199999 0,0.9 -0.18,1.75 -0.48,2.54 l 2.6,1.53 C 21.68,14.805 22,13.425 22,11.975 22,6.7950001 18.05,2.5250002 13,2.0250002 Z"
     id="path4-3"
     inkscape:connector-curvature="0"
     sodipodi:nodetypes="ccsccsc"
     style="fill:#d1d1d1;fill-opacity:1" />
</svg>
